<?xml version="1.0" encoding="UTF-8" standalone="no"?>

<!-- Created with Inkscape (http://www.inkscape.org/) -->

<svg id="shbo" xmlns:rdf="http://www.w3.org/1999/02/22-rdf-syntax-ns#" xmlns="http://www.w3.org/2000/svg" viewBox="0 0 400 400" preserveAspectRatio="xMinYMin" version="1.1" xmlns:cc="http://creativecommons.org/ns#" xmlns:dc="http://purl.org/dc/elements/1.1/" onclick="parent.selectPiece('shbo')">

<metadata id="metadata7">

<rdf:RDF>

<cc:Work rdf:about="">

<dc:format>image/svg+xml</dc:format>

<dc:type rdf:resource="http://purl.org/dc/dcmitype/StillImage"/>

<dc:title/>

</cc:Work>

</rdf:RDF>

</metadata>

<g id="layer1" transform="translate(0,-652.36218)">

<path id="rect4299" fill="#ffb000" d="M72.906,0c-40.392,0-72.906,32.514-72.906,72.906v254.18c0,40.4,32.514,72.91,72.906,72.91h254.18c40.4,0,72.91-32.51,72.91-72.91v-254.18c0-40.392-32.51-72.906-72.91-72.906h-254.18zm63.564,100h127.06c20.2,0,36.47,16.27,36.47,36.47v127.06c0,20.2-16.27,36.47-36.47,36.47h-127.06c-20.2,0-36.47-16.27-36.47-36.47v-127.06c0-20.2,16.27-36.47,36.47-36.47z" transform="translate(0,652.36218)"/>

</g>

</svg>

