<?xml version="1.0" encoding="UTF-8" standalone="no"?>

<!-- Created with Inkscape (http://www.inkscape.org/) -->

<svg id="shsb" xmlns:rdf="http://www.w3.org/1999/02/22-rdf-syntax-ns#" xmlns="http://www.w3.org/2000/svg" viewBox="0 0 400 400" preserveAspectRatio="xMinYMin" version="1.1" xmlns:cc="http://creativecommons.org/ns#" xmlns:dc="http://purl.org/dc/elements/1.1/" onclick="parent.selectPiece('shsb')">

<metadata id="metadata7">

<rdf:RDF>

<cc:Work rdf:about="">

<dc:format>image/svg+xml</dc:format>

<dc:type rdf:resource="http://purl.org/dc/dcmitype/StillImage"/>

<dc:title/>

</cc:Work>

</rdf:RDF>

</metadata>

<g id="layer1" transform="translate(0,-652.36218)">

<path id="rect4299" fill="#1437ad" d="M136.45,752.36c-20.19,0-36.45,16.26-36.45,36.46v127.09c0,20.196,16.257,36.453,36.453,36.453h127.09c20.196,0,36.453-16.257,36.453-36.453v-127.09c0-20.196-16.257-36.453-36.453-36.453h-127.09zm31.781,50,63.531,0c10.098,0,18.234,8.1363,18.234,18.234v63.531c0,10.098-8.1363,18.234-18.234,18.234h-63.531c-10.09,0.01-18.23-8.12-18.23-18.22v-63.531c0-10.098,8.1363-18.234,18.234-18.234z"/>

</g>

</svg>

